<svg width="83" height="65" viewBox="0 0 83 65" fill="none" xmlns="http://www.w3.org/2000/svg">
<path d="M82.066 34H56.962V27.568C70.834 17.536 73.426 15.328 73.426 12.16C73.426 9.952 71.362 8.8 68.866 8.8C65.458 8.8 62.77 10.144 60.466 12.304L55.906 6.832C59.314 3.088 64.402 1.504 68.866 1.504C76.402 1.504 81.826 5.728 81.826 12.16C81.826 17.056 78.322 21.232 69.73 26.8H82.066V34Z" fill="#FCD34D"/>
<path fill-rule="evenodd" clip-rule="evenodd" d="M60.0479 20.3695C55.2353 8.08506 43.1039 0.967995 27.64 0.967995H0.76001V65H27.736C46.0346 65 59.702 54.8591 61.9654 38H52.962V25.5243L54.618 24.3268C56.6884 22.8295 58.4863 21.5213 60.0479 20.3695ZM17.272 50.6V15.368H27.736C39.448 15.368 45.4 23.048 45.4 32.936C45.4 42.44 38.872 50.6 27.64 50.6H17.272Z" fill="#FAFAFA"/>
</svg>
